<?xml version="1.0" encoding="utf-8"?>
<!-- Generator: Adobe Illustrator 22.0.1, SVG Export Plug-In . SVG Version: 6.00 Build 0)  -->
<svg version="1.1" id="Layer_1" xmlns="http://www.w3.org/2000/svg" xmlns:xlink="http://www.w3.org/1999/xlink" x="0px" y="0px"
	 viewBox="0 0 129.1 82.3" style="enable-background:new 0 0 129.1 82.3;" xml:space="preserve">
<style type="text/css">
	.st0{fill:#F01C00;}
</style>
<title>nav</title>
<g transform="translate(0,-952.36218)">
	<path class="st0" d="M6.8,997.3l26.7,30.5c2.2,2.5,5.8,2.5,8.1,0.6c2.3-2,2.5-5.8,0.6-8.1l-18.4-21h94.3c3.2,0,5.7-2.6,5.7-5.7
		c0-3.2-2.6-5.7-5.7-5.7H23.7l18.4-21c2-2.3,1.6-6.1-0.6-8.1c-2.3-2.1-6.1-1.7-8.1,0.6L6.8,989.8C4.9,992.3,5,995.1,6.8,997.3
		L6.8,997.3z"/>
</g>
</svg>
