<?xml version="1.0" encoding="utf-8"?>
<!-- Generator: Adobe Illustrator 22.0.1, SVG Export Plug-In . SVG Version: 6.00 Build 0)  -->
<svg version="1.1" id="Layer_1" xmlns="http://www.w3.org/2000/svg" xmlns:xlink="http://www.w3.org/1999/xlink" x="0px" y="0px"
	 viewBox="0 0 80.1 131.3" style="enable-background:new 0 0 80.1 131.3;" xml:space="preserve">
<style type="text/css">
	.st0{fill:#FFFFFF;}
</style>
<title>nav</title>
<g transform="translate(0,-952.36218)">
	<path class="st0" d="M43.8,1075.8l30.5-26.7c2.5-2.2,2.5-5.8,0.6-8.1c-2-2.3-5.8-2.5-8.1-0.6l-21,18.4v-94.3c0-3.2-2.6-5.7-5.7-5.7
		c-3.2,0-5.7,2.6-5.7,5.7v94.3l-21-18.4c-2.3-2-6.1-1.6-8.1,0.6c-2.1,2.3-1.7,6.1,0.6,8.1l30.5,26.7
		C38.8,1077.6,41.6,1077.5,43.8,1075.8L43.8,1075.8z"/>
</g>
</svg>
