<?xml version="1.0" encoding="utf-8"?>
<!-- Generator: Adobe Illustrator 22.0.1, SVG Export Plug-In . SVG Version: 6.00 Build 0)  -->
<svg version="1.1" id="Layer_1" xmlns="http://www.w3.org/2000/svg" xmlns:xlink="http://www.w3.org/1999/xlink" x="0px" y="0px"
	 viewBox="0 0 159.5 35.6" style="enable-background:new 0 0 159.5 35.6;" xml:space="preserve">
<style type="text/css">
	.st0{fill:#F01C00;}
</style>
<title>nav</title>
<g>
	<path class="st0" d="M5.5,17.6c7.8-3.4,15.6-6.9,23.7-10.5c-1.3,3.3-2.5,5.3-3.7,8.5c41.1,0,82,0,123,0c0,0.7,0,3.4,0,4.1
		c-41,0-81.9,0-123.1,0c1.3,3.3,2.5,5.3,3.8,8.6c-8-3.6-15.8-7-23.6-10.4C5.5,17.9,5.5,17.7,5.5,17.6z"/>
	<path class="st0" d="M153.3,28.8c-2.5,0-4.8,0-7.1,0c-0.2,0-0.4-0.1-0.5-0.3c-1.6-2.4-3.2-4.7-4.9-7.3c2.5,0,4.8,0,7.1,0
		c0.2,0,0.4,0.1,0.5,0.3C150,23.9,151.6,26.3,153.3,28.8z"/>
	<path class="st0" d="M153.3,6.8c-1.7,2.5-3.3,4.9-4.9,7.2c-0.1,0.2-0.5,0.3-0.8,0.3c-2.2,0-4.4,0-6.7,0c0.2-0.3,0.3-0.6,0.4-0.8
		c1.4-2,2.7-4.1,4.1-6.1c0.2-0.3,0.8-0.7,1.2-0.7C148.7,6.7,150.9,6.8,153.3,6.8z"/>
	<path class="st0" d="M141.5,28.8c-2.5,0-4.7,0-7,0c-0.2,0-0.6-0.2-0.7-0.4c-1.6-2.3-3.2-4.7-4.8-7.2c2.5,0,4.8,0,7.1,0
		c0.2,0,0.4,0.1,0.4,0.2C138.1,23.9,139.8,26.3,141.5,28.8z"/>
	<path class="st0" d="M129.7,28.8c-2.5,0-4.7,0-6.9,0c-0.2,0-0.6-0.2-0.7-0.4c-1.6-2.3-3.2-4.7-4.9-7.2c2.5,0,4.8,0,7.1,0
		c0.2,0,0.4,0.2,0.5,0.3C126.4,23.9,128,26.3,129.7,28.8z"/>
	<path class="st0" d="M129,14.4c1.7-2.5,3.2-4.8,4.8-7.1c0.1-0.2,0.4-0.4,0.7-0.4c2.3,0,4.6,0,7,0c-1.7,2.5-3.3,4.9-4.9,7.3
		c-0.1,0.2-0.4,0.3-0.6,0.3C133.7,14.4,131.4,14.4,129,14.4z"/>
	<path class="st0" d="M117.2,14.4c1.7-2.5,3.2-4.9,4.8-7.2c0.1-0.2,0.4-0.4,0.7-0.4c2.3,0,4.5,0,7,0c-0.6,0.9-1.1,1.7-1.6,2.4
		c-1,1.5-2,3-3,4.5c-0.2,0.3-0.6,0.6-0.9,0.7C121.9,14.4,119.6,14.4,117.2,14.4z"/>
</g>
</svg>
